<svg width="54" height="54" viewBox="0 0 54 54" fill="none" xmlns="http://www.w3.org/2000/svg">
<g filter="url(#filter0_d_2_14452)">
<path d="M33.9833 6.3335H20.0167C13.95 6.3335 10.3333 9.95016 10.3333 16.0168V29.9668C10.3333 36.0502 13.95 39.6668 20.0167 39.6668H33.9667C40.0333 39.6668 43.65 36.0502 43.65 29.9835V16.0168C43.6667 9.95016 40.05 6.3335 33.9833 6.3335ZM29.9833 28.0002C30.4667 28.4835 30.4667 29.2835 29.9833 29.7668C29.7333 30.0168 29.4167 30.1335 29.1 30.1335C28.7833 30.1335 28.4667 30.0168 28.2167 29.7668L22.3333 23.8835C21.85 23.4002 21.85 22.6002 22.3333 22.1168L28.2167 16.2335C28.7 15.7502 29.5 15.7502 29.9833 16.2335C30.4667 16.7168 30.4667 17.5168 29.9833 18.0002L24.9833 23.0002L29.9833 28.0002Z" fill="white"/>
</g>
<defs>
<filter id="filter0_d_2_14452" x="-3" y="-3" width="60" height="60" filterUnits="userSpaceOnUse" color-interpolation-filters="sRGB">
<feFlood flood-opacity="0" result="BackgroundImageFix"/>
<feColorMatrix in="SourceAlpha" type="matrix" values="0 0 0 0 0 0 0 0 0 0 0 0 0 0 0 0 0 0 127 0" result="hardAlpha"/>
<feOffset dy="4"/>
<feGaussianBlur stdDeviation="5"/>
<feComposite in2="hardAlpha" operator="out"/>
<feColorMatrix type="matrix" values="0 0 0 0 0 0 0 0 0 0 0 0 0 0 0 0 0 0 0.25 0"/>
<feBlend mode="normal" in2="BackgroundImageFix" result="effect1_dropShadow_2_14452"/>
<feBlend mode="normal" in="SourceGraphic" in2="effect1_dropShadow_2_14452" result="shape"/>
</filter>
</defs>
</svg>
